<?xml version="1.0" encoding="UTF-8" standalone="no"?>
<!DOCTYPE svg PUBLIC "-//W3C//DTD SVG 1.1//EN"
 "http://www.w3.org/Graphics/SVG/1.1/DTD/svg11.dtd">
<!-- Generated by graphviz version 2.30.1 (20201013.1554)
 -->
<!-- Title: snakemake_dag Pages: 1 -->
<svg width="274pt" height="260pt"
 viewBox="0.00 0.00 274.00 260.00" xmlns="http://www.w3.org/2000/svg" xmlns:xlink="http://www.w3.org/1999/xlink">
<g id="graph0" class="graph" transform="scale(1 1) rotate(0) translate(4 256)">
<title>snakemake_dag</title>
<polygon fill="white" stroke="white" points="-4,5 -4,-256 271,-256 271,5 -4,5"/>
<!-- 0 -->
<g id="node1" class="node"><title>0</title>
<path fill="none" stroke="#d6d856" stroke-width="2" d="M133,-36C133,-36 79,-36 79,-36 73,-36 67,-30 67,-24 67,-24 67,-12 67,-12 67,-6 73,-0 79,-0 79,-0 133,-0 133,-0 139,-0 145,-6 145,-12 145,-12 145,-24 145,-24 145,-30 139,-36 133,-36"/>
<text text-anchor="middle" x="106" y="-15.5" font-family="sans" font-size="10.00">bcftools_call</text>
</g>
<!-- 1 -->
<g id="node2" class="node"><title>1</title>
<path fill="none" stroke="#d85656" stroke-width="2" stroke-dasharray="5,2" d="M74,-180C74,-180 12,-180 12,-180 6,-180 0,-174 0,-168 0,-168 0,-156 0,-156 0,-150 6,-144 12,-144 12,-144 74,-144 74,-144 80,-144 86,-150 86,-156 86,-156 86,-168 86,-168 86,-174 80,-180 74,-180"/>
<text text-anchor="middle" x="43" y="-159.5" font-family="sans" font-size="10.00">samtools_sort</text>
</g>
<!-- 1&#45;&gt;0 -->
<g id="edge1" class="edge"><title>1&#45;&gt;0</title>
<path fill="none" stroke="grey" stroke-width="2" d="M28.9557,-143.737C15.6552,-125.144 -0.435504,-95.1209 13,-72 22.7688,-55.1891 40.0864,-43.2666 57.1509,-35.0447"/>
<polygon fill="grey" stroke="grey" points="58.8484,-38.12 66.5556,-30.8502 55.9971,-31.727 58.8484,-38.12"/>
</g>
<!-- 5 -->
<g id="node6" class="node"><title>5</title>
<path fill="none" stroke="#59d856" stroke-width="2" d="M104,-108C104,-108 34,-108 34,-108 28,-108 22,-102 22,-96 22,-96 22,-84 22,-84 22,-78 28,-72 34,-72 34,-72 104,-72 104,-72 110,-72 116,-78 116,-84 116,-84 116,-96 116,-96 116,-102 110,-108 104,-108"/>
<text text-anchor="middle" x="69" y="-87.5" font-family="sans" font-size="10.00">samtools_index</text>
</g>
<!-- 1&#45;&gt;5 -->
<g id="edge7" class="edge"><title>1&#45;&gt;5</title>
<path fill="none" stroke="grey" stroke-width="2" d="M49.427,-143.697C52.3551,-135.813 55.887,-126.304 59.1399,-117.546"/>
<polygon fill="grey" stroke="grey" points="62.446,-118.697 62.647,-108.104 55.884,-116.26 62.446,-118.697"/>
</g>
<!-- 2 -->
<g id="node3" class="node"><title>2</title>
<path fill="none" stroke="#56d8d8" stroke-width="2" stroke-dasharray="5,2" d="M63.25,-252C63.25,-252 22.75,-252 22.75,-252 16.75,-252 10.75,-246 10.75,-240 10.75,-240 10.75,-228 10.75,-228 10.75,-222 16.75,-216 22.75,-216 22.75,-216 63.25,-216 63.25,-216 69.25,-216 75.25,-222 75.25,-228 75.25,-228 75.25,-240 75.25,-240 75.25,-246 69.25,-252 63.25,-252"/>
<text text-anchor="middle" x="43" y="-237" font-family="sans" font-size="10.00">bwa_map</text>
<text text-anchor="middle" x="43" y="-226" font-family="sans" font-size="10.00">sample: A</text>
</g>
<!-- 2&#45;&gt;1 -->
<g id="edge5" class="edge"><title>2&#45;&gt;1</title>
<path fill="none" stroke="grey" stroke-width="2" d="M43,-215.697C43,-207.983 43,-198.712 43,-190.112"/>
<polygon fill="grey" stroke="grey" points="46.5001,-190.104 43,-180.104 39.5001,-190.104 46.5001,-190.104"/>
</g>
<!-- 3 -->
<g id="node4" class="node"><title>3</title>
<path fill="none" stroke="#d85656" stroke-width="2" stroke-dasharray="5,2" d="M201,-180C201,-180 139,-180 139,-180 133,-180 127,-174 127,-168 127,-168 127,-156 127,-156 127,-150 133,-144 139,-144 139,-144 201,-144 201,-144 207,-144 213,-150 213,-156 213,-156 213,-168 213,-168 213,-174 207,-180 201,-180"/>
<text text-anchor="middle" x="170" y="-159.5" font-family="sans" font-size="10.00">samtools_sort</text>
</g>
<!-- 3&#45;&gt;0 -->
<g id="edge2" class="edge"><title>3&#45;&gt;0</title>
<path fill="none" stroke="grey" stroke-width="2" d="M162.28,-143.871C151.276,-119.457 130.981,-74.4258 118.005,-45.6351"/>
<polygon fill="grey" stroke="grey" points="121.047,-43.8679 113.747,-36.1893 114.665,-46.7442 121.047,-43.8679"/>
</g>
<!-- 6 -->
<g id="node7" class="node"><title>6</title>
<path fill="none" stroke="#59d856" stroke-width="2" d="M254,-108C254,-108 184,-108 184,-108 178,-108 172,-102 172,-96 172,-96 172,-84 172,-84 172,-78 178,-72 184,-72 184,-72 254,-72 254,-72 260,-72 266,-78 266,-84 266,-84 266,-96 266,-96 266,-102 260,-108 254,-108"/>
<text text-anchor="middle" x="219" y="-87.5" font-family="sans" font-size="10.00">samtools_index</text>
</g>
<!-- 3&#45;&gt;6 -->
<g id="edge8" class="edge"><title>3&#45;&gt;6</title>
<path fill="none" stroke="grey" stroke-width="2" d="M182.112,-143.697C187.868,-135.474 194.862,-125.483 201.206,-116.421"/>
<polygon fill="grey" stroke="grey" points="204.16,-118.304 207.027,-108.104 198.425,-114.29 204.16,-118.304"/>
</g>
<!-- 4 -->
<g id="node5" class="node"><title>4</title>
<path fill="none" stroke="#56d8d8" stroke-width="2" stroke-dasharray="5,2" d="M190.25,-252C190.25,-252 149.75,-252 149.75,-252 143.75,-252 137.75,-246 137.75,-240 137.75,-240 137.75,-228 137.75,-228 137.75,-222 143.75,-216 149.75,-216 149.75,-216 190.25,-216 190.25,-216 196.25,-216 202.25,-222 202.25,-228 202.25,-228 202.25,-240 202.25,-240 202.25,-246 196.25,-252 190.25,-252"/>
<text text-anchor="middle" x="170" y="-237" font-family="sans" font-size="10.00">bwa_map</text>
<text text-anchor="middle" x="170" y="-226" font-family="sans" font-size="10.00">sample: B</text>
</g>
<!-- 4&#45;&gt;3 -->
<g id="edge6" class="edge"><title>4&#45;&gt;3</title>
<path fill="none" stroke="grey" stroke-width="2" d="M170,-215.697C170,-207.983 170,-198.712 170,-190.112"/>
<polygon fill="grey" stroke="grey" points="173.5,-190.104 170,-180.104 166.5,-190.104 173.5,-190.104"/>
</g>
<!-- 5&#45;&gt;0 -->
<g id="edge3" class="edge"><title>5&#45;&gt;0</title>
<path fill="none" stroke="grey" stroke-width="2" d="M78.1461,-71.6966C82.4026,-63.6436 87.5558,-53.8945 92.2664,-44.9824"/>
<polygon fill="grey" stroke="grey" points="95.3803,-46.5809 96.9591,-36.1043 89.1917,-43.3097 95.3803,-46.5809"/>
</g>
<!-- 6&#45;&gt;0 -->
<g id="edge4" class="edge"><title>6&#45;&gt;0</title>
<path fill="none" stroke="grey" stroke-width="2" d="M191.357,-71.8761C176.582,-62.7236 158.209,-51.3417 142.297,-41.485"/>
<polygon fill="grey" stroke="grey" points="144.093,-38.4806 133.749,-36.1898 140.407,-44.4313 144.093,-38.4806"/>
</g>
</g>
</svg>
